<svg width="43" height="34" viewBox="0 0 43 34" fill="none" xmlns="http://www.w3.org/2000/svg">
<path d="M18.4001 -5.31673e-05L11.8001 23.9999L9.6001 15C12.4668 15 14.8001 15.8333 16.6001 17.4999C18.4001 19.1666 19.3001 21.4666 19.3001 24.3999C19.3001 27.2666 18.3668 29.5999 16.5001 31.3999C14.7001 33.1333 12.4334 34 9.7001 34C6.9001 34 4.56676 33.1333 2.7001 31.3999C0.900098 29.5999 9.7841e-05 27.2666 9.7841e-05 24.3999C9.7841e-05 23.5333 0.0667645 22.6999 0.200098 21.9C0.333431 21.0333 0.600098 20.0333 1.0001 18.8999C1.4001 17.7666 1.96676 16.2666 2.7001 14.3999L8.5001 -5.31673e-05H18.4001ZM42.0001 -5.31673e-05L35.4001 23.9999L33.2001 15C36.0668 15 38.4001 15.8333 40.2001 17.4999C42.0001 19.1666 42.9001 21.4666 42.9001 24.3999C42.9001 27.2666 41.9668 29.5999 40.1001 31.3999C38.3001 33.1333 36.0334 34 33.3001 34C30.5001 34 28.1668 33.1333 26.3001 31.3999C24.5001 29.5999 23.6001 27.2666 23.6001 24.3999C23.6001 23.5333 23.6668 22.6999 23.8001 21.9C23.9334 21.0333 24.2001 20.0333 24.6001 18.8999C25.0001 17.7666 25.5668 16.2666 26.3001 14.3999L32.1001 -5.31673e-05H42.0001Z" fill="#0902A4"/>
</svg>
